<?xml version="1.0" standalone="no"?>
<!DOCTYPE svg PUBLIC "-//W3C//DTD SVG 20010904//EN"
 "http://www.w3.org/TR/2001/REC-SVG-20010904/DTD/svg10.dtd">
<svg version="1.0" xmlns="http://www.w3.org/2000/svg"
 width="467.000000pt" height="304.000000pt" viewBox="0 0 467.000000 304.000000"
 preserveAspectRatio="xMidYMid meet">

<g transform="translate(0.000000,304.000000) scale(0.100000,-0.100000)"
fill="#000000" stroke="none">
<path d="M2397 2804 c-14 -14 -8 -152 6 -157 30 -11 38 9 35 84 -2 57 -6 74
-18 77 -9 1 -19 0 -23 -4z"/>
<path d="M2045 2710 c-11 -18 63 -140 85 -140 29 0 25 27 -13 90 -32 54 -58
72 -72 50z"/>
<path d="M2727 2683 c-53 -85 -60 -113 -28 -113 21 0 97 123 86 140 -12 20
-35 9 -58 -27z"/>
<path d="M2300 2596 c-149 -34 -280 -135 -348 -271 -76 -152 -70 -348 16 -495
36 -62 104 -133 165 -172 29 -18 55 -37 59 -43 4 -5 7 -95 7 -199 0 -159 3
-191 16 -206 41 -45 223 -64 326 -34 92 27 89 19 89 245 l0 197 43 25 c111 65
194 170 234 294 119 377 -220 746 -607 659z m225 -72 c161 -41 292 -179 326
-342 39 -191 -60 -398 -234 -486 -55 -27 -57 -30 -57 -68 l0 -39 -67 3 -68 3
-3 147 c-1 81 1 149 5 151 5 3 40 -16 79 -42 73 -50 113 -64 136 -50 11 7 10
14 -2 36 -11 19 -45 43 -105 73 l-90 46 0 117 c0 93 -3 119 -16 132 -15 15
-17 15 -33 0 -19 -19 -20 -29 -21 -155 l0 -95 -79 -41 c-116 -59 -155 -102
-102 -112 31 -6 63 7 131 53 36 25 67 45 70 45 3 0 5 -70 5 -155 l0 -155 -65
0 -65 0 0 39 c0 37 -2 40 -57 67 -80 39 -166 127 -206 211 -27 59 -32 81 -35
168 -3 81 0 111 16 157 79 223 313 351 537 292z m-90 -579 c0 -23 -34 -33 -45
-14 -13 20 1 40 24 37 13 -2 21 -10 21 -23z m125 -450 l0 -25 -145 0 -145 0 0
25 0 25 145 0 145 0 0 -25z m0 -120 l0 -25 -145 0 -145 0 0 25 0 25 145 0 145
0 0 -25z m0 -120 l0 -25 -145 0 -145 0 0 25 0 25 145 0 145 0 0 -25z"/>
<path d="M1797 2463 c-17 -16 -3 -34 52 -67 66 -41 91 -45 91 -17 0 13 -20 30
-65 55 -73 40 -69 39 -78 29z"/>
<path d="M2953 2433 c-43 -24 -63 -41 -63 -54 0 -11 7 -19 16 -19 24 0 134 69
134 85 0 25 -26 22 -87 -12z"/>
<path d="M1703 2104 c-10 -27 12 -35 83 -32 63 3 69 5 72 26 3 21 0 22 -73 22
-59 0 -77 -3 -82 -16z"/>
<path d="M2965 2110 c-4 -6 -1 -18 6 -26 9 -11 30 -14 83 -12 63 3 71 5 71 23
0 18 -8 20 -77 23 -47 2 -79 -1 -83 -8z"/>
<path d="M1850 1797 c-55 -32 -73 -60 -47 -70 21 -8 137 64 137 85 0 27 -29
22 -90 -15z"/>
<path d="M2890 1811 c0 -23 114 -93 137 -84 26 10 8 38 -47 70 -62 38 -90 42
-90 14z"/>
<path d="M247 764 c-10 -10 -8 -436 1 -452 6 -9 33 -12 98 -10 88 3 89 3 92
30 3 27 2 27 -60 30 l-63 3 -3 67 -3 67 53 3 c52 3 53 4 53 33 0 29 -1 30 -53
33 l-53 3 3 67 3 67 60 5 c56 5 60 7 60 30 0 25 -1 25 -90 28 -50 1 -94 0 -98
-4z"/>
<path d="M547 764 c-10 -10 -8 -436 2 -452 4 -8 19 -12 32 -10 l24 3 0 230 0
230 -25 3 c-14 2 -29 0 -33 -4z"/>
<path d="M812 737 c-34 -123 -94 -408 -89 -422 4 -10 15 -15 29 -13 19 2 26
14 39 63 l16 60 38 0 c38 0 39 -1 50 -50 6 -28 15 -56 19 -63 10 -17 45 -15
52 3 3 8 -13 97 -36 197 -62 274 -57 258 -85 258 -19 0 -26 -7 -33 -33z m46
-210 c-2 -17 -7 -32 -13 -32 -13 0 -18 40 -10 73 6 24 8 25 16 9 6 -10 9 -32
7 -50z"/>
<path d="M1285 758 c-3 -8 -4 -112 -3 -233 l3 -220 92 -3 c84 -3 92 -1 98 18
10 32 -2 40 -59 40 -67 0 -78 12 -74 82 l3 53 45 3 c50 4 70 16 70 43 0 19
-18 27 -80 31 l-35 3 0 65 0 65 65 5 c61 5 65 6 65 30 0 25 -1 25 -93 28 -69
2 -94 -1 -97 -10z"/>
<path d="M1584 757 c-2 -7 -3 -111 -2 -232 l3 -220 24 -3 c13 -2 28 2 32 10 5
7 9 63 9 123 1 125 -3 127 67 -40 34 -79 41 -90 63 -90 l25 0 0 230 0 230 -24
3 c-13 2 -28 -2 -32 -10 -5 -7 -9 -60 -9 -118 0 -57 -4 -100 -8 -95 -5 6 -26
53 -47 105 -21 52 -42 101 -48 108 -12 16 -46 16 -53 -1z"/>
<path d="M1926 755 c-9 -25 -7 -428 2 -443 6 -9 33 -12 98 -10 89 3 89 3 92
31 4 29 8 27 -88 31 l-35 1 -3 67 -3 67 53 3 c52 3 53 4 53 33 0 29 -1 30 -53
33 l-53 3 3 67 3 67 63 3 c62 3 63 3 60 30 -3 27 -3 27 -94 30 -77 2 -93 0
-98 -13z"/>
<path d="M2238 764 c-5 -4 -8 -110 -8 -236 l0 -228 30 0 30 0 0 95 c0 106 10
121 59 94 24 -14 26 -21 31 -99 l5 -85 30 0 30 0 3 83 c2 57 -2 92 -11 111
-12 24 -12 32 -1 52 7 13 13 54 14 91 0 57 -4 71 -24 95 -22 25 -31 28 -103
31 -43 2 -81 0 -85 -4z m132 -74 c11 -11 20 -33 20 -50 0 -39 -41 -83 -73 -78
-19 3 -22 10 -25 62 -2 32 -1 65 2 72 8 21 53 17 76 -6z"/>
<path d="M2598 741 l-33 -29 -3 -160 c-4 -175 3 -205 53 -238 37 -24 113 -14
142 20 24 28 36 88 31 151 l-3 40 -58 3 -58 3 3 -28 c2 -20 9 -29 26 -31 20
-3 23 -8 20 -44 -4 -53 -33 -76 -66 -52 -21 14 -22 22 -22 157 0 78 4 147 8
153 25 36 79 13 84 -38 4 -40 31 -59 54 -36 24 24 10 94 -26 130 -41 40 -107
40 -152 -1z"/>
<path d="M2890 753 c0 -10 19 -61 42 -113 41 -90 43 -101 48 -215 l5 -120 28
-3 27 -3 1 93 c2 129 2 130 54 251 25 59 43 112 40 117 -3 6 -17 10 -31 10
-21 0 -30 -10 -55 -65 -16 -36 -33 -65 -37 -65 -5 0 -20 28 -34 63 -23 56 -29
62 -57 65 -24 3 -31 -1 -31 -15z"/>
<path d="M3447 763 c-9 -8 -9 -426 -1 -447 9 -24 119 -22 161 4 43 26 53 67
53 225 0 190 -23 225 -146 225 -33 0 -64 -3 -67 -7z m131 -76 c9 -7 12 -47 10
-156 l-3 -146 -28 -13 c-15 -7 -32 -10 -37 -7 -11 7 -14 327 -3 338 8 8 42 -1
61 -16z"/>
<path d="M3831 748 c-18 -50 -101 -429 -96 -438 3 -6 17 -10 30 -10 25 0 27 4
51 103 5 23 11 27 39 27 40 0 44 -6 59 -74 10 -44 15 -51 37 -54 15 -2 29 3
32 10 4 12 -81 403 -97 444 -9 22 -46 17 -55 -8z m39 -177 c0 -5 3 -23 6 -40
6 -27 4 -31 -15 -31 -23 0 -24 3 -15 49 6 28 24 45 24 22z"/>
<path d="M4024 755 c-10 -26 4 -44 38 -47 l33 -3 6 -200 c3 -110 6 -201 7
-202 1 -2 13 -3 27 -3 14 0 26 1 27 3 1 1 4 92 7 202 l6 200 35 5 c29 4 35 9
35 30 0 25 0 25 -108 28 -89 2 -108 0 -113 -13z"/>
<path d="M4385 758 c-16 -40 -102 -435 -97 -446 2 -7 16 -12 31 -10 23 3 28
10 41 63 15 59 16 60 51 63 33 3 37 0 43 -25 24 -99 26 -103 51 -103 13 0 27
5 30 10 7 12 -84 429 -98 448 -5 6 -18 12 -29 12 -10 0 -21 -6 -23 -12z m44
-229 c1 -31 -6 -40 -25 -32 -11 4 -13 15 -8 42 4 20 9 40 12 45 7 13 20 -22
21 -55z"/>
</g>
</svg>
